<svg width="24" height="24" viewBox="0 0 24 24" fill="none" xmlns="http://www.w3.org/2000/svg">
<g filter="url(#filter0_d_2492_21835)">
<path d="M12.0003 15.3337C16.0437 15.3337 19.3337 12.044 19.3337 8.00033C19.3337 7.30238 19.2362 6.61458 19.0433 5.95588C18.9483 5.63197 18.6101 5.44592 18.2853 5.54096C17.961 5.6357 17.7756 5.97512 17.8703 6.29903C18.0301 6.84629 18.1114 7.4189 18.1114 8.00033C18.1114 11.3699 15.3699 14.1114 12.0003 14.1114C8.63071 14.1114 5.88921 11.3699 5.88921 8.00033C5.88921 4.63071 8.63071 1.88921 12.0003 1.88921C13.2249 1.88921 14.4031 2.24729 15.4075 2.92449C15.6871 3.11323 16.0673 3.03908 16.2557 2.75948C16.4443 2.47959 16.3708 2.09973 16.0909 1.91115C14.8839 1.09728 13.4695 0.666992 12.0003 0.666992C7.95694 0.666992 4.66699 3.95664 4.66699 8.00033C4.66699 12.044 7.95694 15.3337 12.0003 15.3337Z" fill="#FF3F3A"/>
<path d="M18.8622 1.52885L12.0002 8.3905L9.80489 6.19552C9.54447 5.93526 9.1226 5.93526 8.86218 6.19552C8.60193 6.45593 8.60193 6.87781 8.86218 7.13822L11.5288 9.80489C11.6592 9.93526 11.8295 10.0002 12.0002 10.0002C12.1709 10.0002 12.3412 9.93526 12.4716 9.80489L19.8049 2.47156C20.0651 2.21114 20.0651 1.78927 19.8049 1.52885C19.5445 1.2686 19.1226 1.2686 18.8622 1.52885Z" fill="#FF3F3A"/>
</g>
<defs>
<filter id="filter0_d_2492_21835" x="0" y="0" width="24" height="24" filterUnits="userSpaceOnUse" color-interpolation-filters="sRGB">
<feFlood flood-opacity="0" result="BackgroundImageFix"/>
<feColorMatrix in="SourceAlpha" type="matrix" values="0 0 0 0 0 0 0 0 0 0 0 0 0 0 0 0 0 0 127 0" result="hardAlpha"/>
<feOffset dy="4"/>
<feGaussianBlur stdDeviation="2"/>
<feComposite in2="hardAlpha" operator="out"/>
<feColorMatrix type="matrix" values="0 0 0 0 0 0 0 0 0 0 0 0 0 0 0 0 0 0 0.25 0"/>
<feBlend mode="normal" in2="BackgroundImageFix" result="effect1_dropShadow_2492_21835"/>
<feBlend mode="normal" in="SourceGraphic" in2="effect1_dropShadow_2492_21835" result="shape"/>
</filter>
</defs>
</svg>
